<svg width="303" height="96" viewBox="0 0 303 96" fill="none" xmlns="http://www.w3.org/2000/svg">
<path d="M84.752 20.5998C84.752 23.3412 84.0425 25.8569 82.6234 28.1468C81.2043 30.4367 79.1402 32.3073 76.431 33.7586C73.7218 35.21 70.4967 36.0646 66.7554 36.3226L64.6752 47.9817C63.8689 52.4648 61.6757 54.7063 58.0958 54.7063C56.1284 54.7063 54.3062 54.1257 52.6291 52.9647C50.9842 51.8036 49.6619 50.0297 48.6621 47.6431C47.6623 45.2564 47.1624 42.3215 47.1624 38.8383C47.1624 32.2912 48.2105 26.7438 50.3069 22.1963C52.4355 17.6165 55.2737 14.1978 58.8214 11.9402C62.4014 9.65027 66.3361 8.50533 70.6257 8.50533C73.6573 8.50533 76.2214 9.03748 78.3178 10.1018C80.4464 11.1661 82.0429 12.6175 83.1072 14.4558C84.2037 16.2619 84.752 18.3099 84.752 20.5998ZM67.6262 31.3397C74.2379 30.5012 77.5437 27.0663 77.5437 21.0352C77.5437 18.9066 76.8342 17.1811 75.4151 15.8588C74.0282 14.5042 71.8674 13.8269 68.9324 13.8269C65.6105 13.8269 62.7078 14.8751 60.2244 16.9715C57.7732 19.0678 55.8704 21.9866 54.5158 25.7279C53.1935 29.4369 52.5323 33.678 52.5323 38.4513C52.5323 40.4509 52.7258 42.2248 53.1128 43.7729C53.5321 45.3209 54.0481 46.5304 54.6609 47.4012C55.306 48.2398 55.9188 48.659 56.4993 48.659C57.3056 48.659 57.9184 47.5463 58.3377 45.3209L59.9341 36.1775C58.6763 35.984 58.128 35.9034 58.2893 35.9356C57.3217 35.7744 56.6928 35.4841 56.4025 35.0648C56.1123 34.6133 55.9671 34.0489 55.9671 33.3716C55.9671 32.6621 56.1607 32.0976 56.5477 31.6784C56.967 31.2591 57.5314 31.0495 58.2409 31.0495C58.5634 31.0495 58.8053 31.0656 58.9666 31.0978C59.7406 31.2268 60.3373 31.3075 60.7566 31.3397C61.1758 28.8241 61.7725 25.4537 62.5465 21.2287C62.7401 20.1322 63.1755 19.3581 63.8527 18.9066C64.5623 18.4228 65.3847 18.1809 66.32 18.1809C67.3843 18.1809 68.1423 18.3906 68.5938 18.8098C69.0776 19.1969 69.3195 19.8258 69.3195 20.6966C69.3195 21.2126 69.2872 21.6319 69.2227 21.9544L67.6262 31.3397ZM88.0285 49.675C86.0289 49.675 84.4324 48.9493 83.2391 47.498C82.0457 46.0466 81.4491 44.1438 81.4491 41.7894C81.4491 39.2092 82.0457 36.7742 83.2391 34.4843C84.4324 32.1621 86.0127 30.3077 87.9801 28.9208C89.9797 27.5017 92.0922 26.7922 94.3176 26.7922C95.0272 26.7922 95.4948 26.9373 95.7206 27.2276C95.9786 27.4856 96.1882 27.9694 96.3495 28.6789C97.0268 28.5499 97.7363 28.4854 98.4781 28.4854C100.058 28.4854 100.849 29.0498 100.849 30.1786C100.849 30.8559 100.607 32.4685 100.123 35.0164C99.3812 38.7254 99.0103 41.3056 99.0103 42.7569C99.0103 43.2407 99.1232 43.6277 99.3489 43.918C99.6069 44.2083 99.9295 44.3534 100.316 44.3534C100.929 44.3534 101.671 43.9664 102.542 43.1923C103.413 42.386 104.59 41.0959 106.073 39.3221C106.46 38.8706 106.896 38.6448 107.38 38.6448C107.799 38.6448 108.121 38.8383 108.347 39.2253C108.605 39.6123 108.734 40.1445 108.734 40.8218C108.734 42.1119 108.428 43.1117 107.815 43.8212C106.493 45.4661 105.09 46.8529 103.606 47.9817C102.123 49.1106 100.687 49.675 99.3006 49.675C98.2362 49.675 97.2526 49.3202 96.3495 48.6106C95.4787 47.8689 94.8175 46.869 94.366 45.6112C92.6889 48.3204 90.5764 49.675 88.0285 49.675ZM89.7701 44.7888C90.4796 44.7888 91.1569 44.3695 91.802 43.531C92.447 42.6924 92.9147 41.5797 93.2049 40.1929L94.9949 31.2913C93.6403 31.3236 92.3825 31.8396 91.2214 32.8394C90.0926 33.807 89.1896 35.0971 88.5123 36.7097C87.835 38.3223 87.4963 40.0316 87.4963 41.8377C87.4963 42.8375 87.6898 43.5793 88.0769 44.0631C88.4961 44.5469 89.0606 44.7888 89.7701 44.7888ZM108.237 49.675C107.012 49.675 106.141 49.0299 105.625 47.7398C105.141 46.4498 104.899 44.3856 104.899 41.5475C104.899 37.3547 105.496 33.3716 106.689 29.5981C106.979 28.6628 107.447 27.9855 108.092 27.5662C108.769 27.1147 109.705 26.8889 110.898 26.8889C111.543 26.8889 111.995 26.9696 112.253 27.1308C112.511 27.2921 112.64 27.5985 112.64 28.05C112.64 28.566 112.398 29.7271 111.914 31.5332C111.591 32.8233 111.333 33.9521 111.14 34.9197C110.946 35.8872 110.785 37.0806 110.656 38.4997C111.72 35.726 112.914 33.4683 114.236 31.7267C115.558 29.9851 116.849 28.7434 118.106 28.0016C119.396 27.2598 120.574 26.8889 121.638 26.8889C123.734 26.8889 124.783 27.9371 124.783 30.0335C124.783 31.2913 124.428 33.5651 123.718 36.8548C123.105 39.6607 122.799 41.5152 122.799 42.4183C122.799 43.7084 123.267 44.3534 124.202 44.3534C124.847 44.3534 125.605 43.9664 126.476 43.1923C127.379 42.386 128.572 41.0959 130.056 39.3221C130.443 38.8706 130.878 38.6448 131.362 38.6448C131.781 38.6448 132.104 38.8383 132.329 39.2253C132.587 39.6123 132.716 40.1445 132.716 40.8218C132.716 42.1119 132.41 43.1117 131.797 43.8212C130.41 45.5306 128.911 46.9335 127.298 48.0301C125.718 49.1267 123.912 49.675 121.88 49.675C120.235 49.675 118.993 49.2073 118.155 48.272C117.316 47.3044 116.897 45.9176 116.897 44.1115C116.897 43.2084 117.123 41.5958 117.574 39.2737C117.993 37.2418 118.203 35.8389 118.203 35.0648C118.203 34.5488 118.026 34.2908 117.671 34.2908C117.252 34.2908 116.655 34.8391 115.881 35.9356C115.139 36.9999 114.365 38.419 113.559 40.1929C112.785 41.9667 112.156 43.8374 111.672 45.8047C111.317 47.3206 110.898 48.3526 110.414 48.9009C109.963 49.4169 109.237 49.675 108.237 49.675ZM150.379 38.6448C150.798 38.6448 151.121 38.8383 151.347 39.2253C151.605 39.6123 151.734 40.1445 151.734 40.8218C151.734 42.1119 151.427 43.1117 150.814 43.8212C149.428 45.5306 147.912 46.9335 146.267 48.0301C144.622 49.1267 142.735 49.675 140.607 49.675C134.027 49.675 130.738 45.0468 130.738 35.7905C130.738 34.3714 130.786 32.9362 130.883 31.4849H128.996C128.028 31.4849 127.367 31.3075 127.012 30.9527C126.69 30.5979 126.529 30.0335 126.529 29.2595C126.529 27.4534 127.254 26.5503 128.706 26.5503H131.463C132.011 23.0026 132.85 19.7613 133.979 16.8263C135.108 13.8914 136.462 11.5531 138.043 9.81153C139.655 8.06992 141.381 7.19912 143.219 7.19912C144.574 7.19912 145.638 7.79578 146.412 8.98911C147.186 10.1824 147.573 11.6821 147.573 13.4883C147.573 18.4873 145.477 22.8413 141.284 26.5503H146.702C147.218 26.5503 147.589 26.6632 147.815 26.8889C148.041 27.1147 148.154 27.534 148.154 28.1468C148.154 30.3722 146.331 31.4849 142.687 31.4849H136.785C136.72 33.0975 136.688 34.3553 136.688 35.2583C136.688 38.6125 137.075 40.9669 137.849 42.3215C138.655 43.6761 139.913 44.3534 141.623 44.3534C143.009 44.3534 144.235 43.9341 145.299 43.0956C146.364 42.257 147.621 40.9992 149.073 39.3221C149.46 38.8706 149.895 38.6448 150.379 38.6448ZM141.913 11.8434C141.429 11.8434 140.881 12.4562 140.268 13.6818C139.687 14.8751 139.123 16.5522 138.575 18.7131C138.059 20.8417 137.623 23.2122 137.269 25.8246C139.171 24.1798 140.591 22.3414 141.526 20.3095C142.493 18.2454 142.977 16.3748 142.977 14.6977C142.977 12.7948 142.622 11.8434 141.913 11.8434ZM151.229 49.675C150.004 49.675 149.133 49.0299 148.617 47.7398C148.133 46.4498 147.891 44.3856 147.891 41.5475C147.891 37.3547 148.488 33.3716 149.681 29.5981C149.972 28.6628 150.439 27.9855 151.084 27.5662C151.762 27.1147 152.697 26.8889 153.89 26.8889C154.535 26.8889 154.987 26.9696 155.245 27.1308C155.503 27.2921 155.632 27.5985 155.632 28.05C155.632 28.566 155.39 29.7271 154.906 31.5332C154.584 32.8233 154.326 33.9521 154.132 34.9197C153.939 35.8872 153.777 37.0806 153.648 38.4997C154.713 35.726 155.906 33.4683 157.228 31.7267C158.551 29.9851 159.841 28.7434 161.098 28.0016C162.389 27.2598 163.566 26.8889 164.63 26.8889C166.726 26.8889 167.775 27.9371 167.775 30.0335C167.775 30.4528 167.63 31.4687 167.339 33.0813C167.081 34.3714 166.952 35.1777 166.952 35.5002C166.952 36.629 167.355 37.1935 168.162 37.1935C169.065 37.1935 170.226 36.4839 171.645 35.0648C172.064 34.6455 172.5 34.4359 172.951 34.4359C173.37 34.4359 173.693 34.6294 173.919 35.0164C174.177 35.3712 174.306 35.855 174.306 36.4678C174.306 37.6611 173.983 38.5964 173.338 39.2737C172.435 40.209 171.371 41.0153 170.145 41.6926C168.952 42.3376 167.678 42.6602 166.323 42.6602C164.614 42.6602 163.308 42.2248 162.405 41.354C161.534 40.4832 161.098 39.306 161.098 37.8224C161.098 37.3386 161.147 36.8548 161.244 36.371C161.308 35.726 161.34 35.2906 161.34 35.0648C161.34 34.5488 161.163 34.2908 160.808 34.2908C160.324 34.2908 159.679 34.8391 158.873 35.9356C158.099 36.9999 157.325 38.419 156.551 40.1929C155.777 41.9667 155.148 43.8374 154.664 45.8047C154.309 47.3206 153.89 48.3526 153.406 48.9009C152.955 49.4169 152.229 49.675 151.229 49.675ZM186.743 26.8889C187.484 26.8889 188 26.9857 188.291 27.1792C188.581 27.3727 188.726 27.6952 188.726 28.1468C188.726 28.9208 188.307 31.6784 187.468 36.4194C186.726 40.9669 186.291 43.66 186.162 44.4985C184.969 52.7873 183.324 59.3506 181.227 64.1884C179.131 69.0261 176.341 71.445 172.858 71.445C171.213 71.445 169.875 70.929 168.843 69.8969C167.811 68.8971 167.295 67.5748 167.295 65.93C167.295 64.4141 167.633 62.866 168.311 61.2857C169.02 59.7053 170.31 57.8831 172.181 55.819C174.084 53.7871 176.761 51.4488 180.212 48.8042L180.357 47.6915C180.582 46.4981 180.84 44.7888 181.131 42.5634C180.486 44.8855 179.583 46.6594 178.422 47.885C177.26 49.0783 176.035 49.675 174.745 49.675C173.293 49.675 172.1 49.0138 171.165 47.6915C170.262 46.3369 169.81 44.6598 169.81 42.6602C169.81 40.2413 169.972 38.032 170.294 36.0324C170.617 34.0005 171.149 31.8558 171.891 29.5981C172.213 28.6306 172.665 27.9371 173.245 27.5179C173.826 27.0986 174.745 26.8889 176.003 26.8889C176.712 26.8889 177.196 27.0018 177.454 27.2276C177.744 27.4534 177.889 27.792 177.889 28.2435C177.889 28.5015 177.712 29.3724 177.357 30.8559C177.035 32.0493 176.777 33.1297 176.583 34.0973C176.325 35.4196 176.099 36.6935 175.906 37.9191C175.712 39.1124 175.616 40.0961 175.616 40.8702C175.616 42.0958 175.954 42.7085 176.632 42.7085C177.115 42.7085 177.712 42.2248 178.422 41.2572C179.163 40.2896 179.937 38.8222 180.744 36.8548C181.582 34.8874 182.389 32.4685 183.163 29.5981C183.421 28.6306 183.808 27.9371 184.324 27.5179C184.872 27.0986 185.678 26.8889 186.743 26.8889ZM173.39 66.7524C174.197 66.7524 175.1 65.8171 176.099 63.9465C177.099 62.0758 178.099 58.9635 179.099 54.6095C176.615 56.7059 174.809 58.6088 173.681 60.3181C172.584 62.0597 172.036 63.5756 172.036 64.8656C172.036 65.4139 172.132 65.8655 172.326 66.2202C172.552 66.575 172.906 66.7524 173.39 66.7524ZM194.881 49.675C193.462 49.675 192.381 49.2879 191.639 48.5139C190.93 47.7398 190.575 46.7239 190.575 45.4661C190.575 44.0147 190.978 42.8537 191.784 41.9829C192.623 41.1121 193.784 40.6767 195.268 40.6767C196.687 40.6767 197.751 41.0314 198.461 41.741C199.202 42.4183 199.573 43.4342 199.573 44.7888C199.573 46.2724 199.154 47.4657 198.315 48.3688C197.477 49.2396 196.332 49.675 194.881 49.675ZM206.93 49.675C205.705 49.675 204.834 49.0299 204.318 47.7398C203.834 46.4498 203.592 44.3856 203.592 41.5475C203.592 37.3547 204.189 33.3716 205.382 29.5981C205.672 28.6628 206.14 27.9855 206.785 27.5662C207.462 27.1147 208.398 26.8889 209.591 26.8889C210.236 26.8889 210.688 26.9696 210.946 27.1308C211.204 27.2921 211.333 27.5985 211.333 28.05C211.333 28.566 211.091 29.7271 210.607 31.5332C210.284 32.8233 210.026 33.9521 209.833 34.9197C209.639 35.855 209.478 37.0322 209.349 38.4513C210.22 35.9356 211.252 33.807 212.445 32.0654C213.671 30.3238 214.913 29.0337 216.17 28.1952C217.46 27.3243 218.67 26.8889 219.799 26.8889C220.928 26.8889 221.718 27.147 222.169 27.663C222.653 28.179 222.895 28.9692 222.895 30.0335C222.895 31.0656 222.588 32.9362 221.976 35.6454C221.718 36.8064 221.54 37.6772 221.444 38.2578C223.056 34.2908 224.846 31.4042 226.814 29.5981C228.781 27.792 230.619 26.8889 232.329 26.8889C234.425 26.8889 235.473 27.9371 235.473 30.0335C235.473 31.2913 235.118 33.5651 234.409 36.8548C233.796 39.6607 233.49 41.5152 233.49 42.4183C233.49 43.7084 233.957 44.3534 234.893 44.3534C235.538 44.3534 236.296 43.9664 237.166 43.1923C238.069 42.386 239.263 41.0959 240.746 39.3221C241.133 38.8706 241.569 38.6448 242.053 38.6448C242.472 38.6448 242.794 38.8383 243.02 39.2253C243.278 39.6123 243.407 40.1445 243.407 40.8218C243.407 42.1119 243.101 43.1117 242.488 43.8212C241.101 45.5306 239.601 46.9335 237.989 48.0301C236.408 49.1267 234.602 49.675 232.57 49.675C230.926 49.675 229.684 49.2073 228.845 48.272C228.007 47.3044 227.588 45.9176 227.588 44.1115C227.588 43.2084 227.813 41.5958 228.265 39.2737C228.684 37.2418 228.894 35.8389 228.894 35.0648C228.894 34.5488 228.716 34.2908 228.362 34.2908C227.942 34.2908 227.346 34.8391 226.572 35.9356C225.798 36.9999 225.024 38.419 224.249 40.1929C223.475 41.9667 222.847 43.8374 222.363 45.8047C222.008 47.3528 221.589 48.3849 221.105 48.9009C220.653 49.4169 219.912 49.675 218.88 49.675C217.815 49.675 217.009 49.1751 216.461 48.1752C215.945 47.1432 215.687 45.9015 215.687 44.4501C215.687 43.2246 215.848 41.4507 216.17 39.1286C216.428 37.0644 216.557 35.7099 216.557 35.0648C216.557 34.5488 216.38 34.2908 216.025 34.2908C215.541 34.2908 214.929 34.8713 214.187 36.0324C213.445 37.1935 212.719 38.677 212.01 40.4832C211.333 42.2893 210.784 44.0631 210.365 45.8047C210.01 47.3206 209.591 48.3526 209.107 48.9009C208.656 49.4169 207.93 49.675 206.93 49.675ZM256.815 40.0961C257.234 40.0961 257.556 40.2896 257.782 40.6767C258.04 41.0637 258.169 41.5958 258.169 42.2731C258.169 43.4342 257.895 44.434 257.347 45.2726C256.444 46.6594 255.25 47.7398 253.767 48.5139C252.315 49.2879 250.574 49.675 248.542 49.675C245.446 49.675 243.043 48.7558 241.334 46.9174C239.624 45.0468 238.77 42.5312 238.77 39.3705C238.77 37.1451 239.237 35.0809 240.173 33.1781C241.108 31.243 242.398 29.711 244.043 28.5822C245.72 27.4534 247.607 26.8889 249.703 26.8889C251.574 26.8889 253.073 27.4534 254.202 28.5822C255.331 29.6787 255.895 31.1785 255.895 33.0813C255.895 35.3067 255.089 37.2257 253.477 38.8383C251.896 40.4186 249.187 41.6765 245.349 42.6118C246.123 44.0954 247.429 44.8372 249.268 44.8372C250.59 44.8372 251.67 44.5308 252.509 43.918C253.38 43.3052 254.38 42.2731 255.508 40.8218C255.895 40.338 256.331 40.0961 256.815 40.0961ZM248.881 31.63C247.687 31.63 246.671 32.3234 245.833 33.7102C245.027 35.0971 244.623 36.7742 244.623 38.7415V38.8383C246.526 38.3868 248.026 37.7095 249.123 36.8064C250.219 35.9034 250.767 34.8552 250.767 33.6619C250.767 33.0491 250.59 32.5653 250.235 32.2105C249.913 31.8235 249.461 31.63 248.881 31.63Z" fill="#94733B"/>
<line x1="38.37" y1="48.7559" x2="263.63" y2="48.7559" stroke="#94733B" stroke-width="2.26772"/>
</svg>
